<?xml version="1.0" encoding="UTF-8"?>
<svg id="Layer_1" xmlns="http://www.w3.org/2000/svg" version="1.1" viewBox="0 0 40 17">
  <!-- Generator: Adobe Illustrator 29.1.0, SVG Export Plug-In . SVG Version: 2.1.0 Build 142)  -->
  <defs>
    <style>
      .st0 {
        fill: #003256;
      }
    </style>
  </defs>
  <polygon class="st0" points="4 4 4 6.7 8.4 6.7 8.4 10.2 4 10.2 4 16.6 0 16.6 0 .4 8.9 .4 8.9 4 4 4"/>
  <path class="st0" d="M9.6.5v16.1h4V4h.9c2.6,0,4.4,1.6,4.4,4.5s-2,4.5-4.4,4.5h-.9v3.6h1.7c4.2,0,7.8-3.5,7.8-8.1S19.6.5,15.3.5h-5.7,0Z"/>
  <polygon class="st0" points="23.6 16.6 27.7 16.6 27.7 .4 23.6 .4 23.6 16.6"/>
  <path class="st0" d="M40,5.8c-.8-1.1-2.1-1.8-3.5-1.8-2.4,0-4.1,2-4.1,4.5s1.7,4.4,4.2,4.4,2.6-.7,3.5-1.7v5c-1.3.4-2.3.7-3.5.7-2.1,0-4.2-.9-5.8-2.4-1.7-1.6-2.5-3.7-2.5-6.1s.8-4.3,2.3-5.9c1.5-1.6,3.7-2.6,5.9-2.6s2.4.3,3.6.8v5h0Z"/>
</svg>